<?xml version="1.0" encoding="UTF-8"?>
<svg xmlns="http://www.w3.org/2000/svg" viewBox="0 0 512 512" fill="currentColor">
  <circle cx="256" cy="256" r="240" fill="none" stroke="currentColor" stroke-width="32"/>
  <path d="M256 48c-114.875 0-208 93.125-208 208s93.125 208 208 208 208-93.125 208-208S370.875 48 256 48zm97.5 225.5l-97.5 97.5-97.5-97.5 16.5-16.5 81 81 81-81 16.5 16.5z"/>
  <g transform="translate(160, 160) scale(0.4)">
    <path d="M366.4 256c0-60.8-49.6-110.4-110.4-110.4S145.6 195.2 145.6 256s49.6 110.4 110.4 110.4S366.4 316.8 366.4 256zm-173.2 0c0-34.7 28.1-62.8 62.8-62.8s62.8 28.1 62.8 62.8-28.1 62.8-62.8 62.8-62.8-28.1-62.8-62.8z"/>
    <path d="M256 96c-8.8 0-16 7.2-16 16v32c0 8.8 7.2 16 16 16s16-7.2 16-16v-32c0-8.8-7.2-16-16-16zM256 352c-8.8 0-16 7.2-16 16v32c0 8.8 7.2 16 16 16s16-7.2 16-16v-32c0-8.8-7.2-16-16-16zM400 240h-32c-8.8 0-16 7.2-16 16s7.2 16 16 16h32c8.8 0 16-7.2 16-16s-7.2-16-16-16zM160 240h-32c-8.8 0-16 7.2-16 16s7.2 16 16 16h32c8.8 0 16-7.2 16-16s-7.2-16-16-16z"/>
  </g>
  <text x="256" y="350" text-anchor="middle" font-family="serif" font-size="48" fill="currentColor">♥</text>
</svg>